<svg xmlns="http://www.w3.org/2000/svg" xml:space="preserve" viewBox="0 0 100 100"><path fill="#e7b35e" d="m84 41-1.9-2.7-1.7-2.1.1-.3c1.3-5.1 1.9-9.3 1.9-12.5v-.3c0-2.8-.6-4.9-1.6-6.2a4.7 4.7 0 0 0-3.7-1.8c-7.7 0-15.1 6-17.7 8.3a36.7 36.7 0 0 0-18.8 0C38 21.1 30.6 15 22.9 15c-1.5 0-2.8.6-3.7 1.8-1 1.3-1.6 3.4-1.6 6.2v.3c0 3.2.6 7.4 1.9 12.5l.1.3-1.7 2.1L16 41c-4 6.2-6.3 13.6-6.3 21.5a27.7 27.7 0 0 0 13 23.4c7.3 4.8 17 7.5 27.3 7.5s20.1-2.7 27.3-7.5a27.1 27.1 0 0 0 13-23.4c0-7.9-2.3-15.3-6.3-21.5zM50 90.6c-9.4 0-18.8-2.3-25.8-7S12.5 71.9 12.5 62.5C25 50 37.5 50 50 62.5 62.5 50 75 50 87.5 62.5c0 18.8-18.7 28.1-37.5 28.1z" data-original="#e7b35e"/><g fill="#f3efe0"><path d="M12.5 62.5c0 9.4 4.7 16.4 11.7 21.1s16.4 7 25.8 7c18.8 0 37.5-9.4 37.5-28.1C75 50 62.5 50 50 62.5 37.5 50 25 50 12.5 62.5z" data-original="#f3efe0"/><circle cx="61.1" cy="43.4" r="3.8" data-original="#f3efe0"/><circle cx="38.9" cy="43.4" r="3.8" data-original="#f3efe0"/></g><path fill="#564b19" d="m84 41-1.9-2.7-1.7-2.1.1-.3c1.3-5.1 1.9-9.3 1.9-12.5v-.3c0-2.8-.6-4.9-1.6-6.2a4.7 4.7 0 0 0-3.7-1.8c-7.7 0-15.1 6-17.7 8.3a36.7 36.7 0 0 0-18.8 0C38 21.1 30.6 15 22.9 15c-1.5 0-2.8.6-3.7 1.8-1 1.3-1.6 3.4-1.6 6.2v.3c0 3.2.6 7.4 1.9 12.5l.1.3-1.7 2.1L16 41c-4 6.2-6.3 13.6-6.3 21.5a27.7 27.7 0 0 0 13 23.4c7.3 4.8 17 7.5 27.3 7.5s20.1-2.7 27.3-7.5a27.1 27.1 0 0 0 13-23.4c0-7.9-2.3-15.3-6.3-21.5zm-6.9-23.2c.7 0 1.1.2 1.5.7.5.7.9 1.8 1 3.3-6.5.3-10.7 5-13.3 7.9-2.5-.4-4.6-2-5.3-4 2-1.9 9.2-7.9 16.1-7.9zm-55.7.7c.4-.5.8-.7 1.5-.7 6.9 0 14.1 6 16.1 7.9-.7 2-2.8 3.6-5.3 4-2.6-3-6.8-7.6-13.3-7.9.1-1.5.4-2.6 1-3.3zM50 90.6c-9.4 0-18.8-2.3-25.8-7S12.5 71.9 12.5 62.5c0-8.1 2.6-15.6 7-21.8 3-4 7-7.5 7-7.5.6-.5.6-1.3.2-1.9l2.5-2.3.4.4.4.4a36 36 0 0 1 1.9 2.1l.7.8h.7c4.1-.3 7.7-3.1 8.6-6.7a36.8 36.8 0 0 1 16.4 0c.9 3.6 4.5 6.4 8.6 6.7h.7l.7-.8 2.6-2.8 2.5 2.3c-.5.6-.4 1.4.2 1.9a38.4 38.4 0 0 1 13.9 29.2c0 18.8-18.7 28.1-37.5 28.1z" data-original="#564b19"/><path fill="#f3efe0" d="M29.2 29a13.7 13.7 0 0 0-8.8-4.4 47 47 0 0 0 1.5 9.2l2.9-2.7c.5-.4 1.4-.6 1.9.2l1-.9 1.5-1.4zm41.7.1 1.5 1.4 1 .9c.5-.8 1.4-.6 1.9-.2l2.9 2.7a47 47 0 0 0 1.5-9.2c-3.1.2-5.9 1.6-8.8 4.4z" data-original="#f3efe0"/><path fill="#5f5e5c" d="m69.6 59-.5-.1-9.3-3.7c-.6-.2-1-.9-.9-1.5s.6-1.1 1.3-1.2l9.5-.8c.8-.1 1.4.5 1.5 1.3s-.5 1.4-1.3 1.5l-3.6.3 3.9 1.5c.7.3 1.1 1.1.8 1.8-.3.6-.8.9-1.4.9zm-7.1 14.7c-4.6 0-8.5-2.8-10.2-6.7.7-.3 1.3-.7 1.8-1.2l1.8-1.8a5.8 5.8 0 0 0-4.1-9.9h-3.7A5.8 5.8 0 0 0 44 64l1.8 1.8a7 7 0 0 0 1.8 1.2 11 11 0 0 1-10.2 6.7c-.8 0-1.4.6-1.4 1.4s.6 1.4 1.4 1.4c5.5 0 10.3-3.2 12.5-7.9 2.2 4.7 7 7.9 12.5 7.9.8 0 1.4-.6 1.4-1.4s-.5-1.4-1.3-1.4z" data-original="#5f5e5c"/><path fill="#5f5e5b" d="M28.3 54.9c-.3-.8.1-1.5.8-1.8a14 14 0 0 1 5.7-.9c1.4 0 2.7.3 4 .7.7.2 1.1 1 .9 1.7s-1 1.1-1.7.9a12.5 12.5 0 0 0-7.9.1l-.5.1c-.5 0-1.1-.3-1.3-.8z" data-original="#5f5e5b"/><path fill="#5f5e5c" d="M50 83.4a8.2 8.2 0 0 1-8.2-8.2v-2.1L50 68l8.2 5.1v2.1c0 4.5-3.7 8.2-8.2 8.2z" data-original="#5f5e5c"/></svg>